<svg xmlns="http://www.w3.org/2000/svg" width="353" height="318" fill="none" xmlns:c2pa="http://c2pa.org/manifest"><metadata><c2pa:manifest>AAAWgmp1bWIAAAAeanVtZGMycGEAEQAQgAAAqgA4m3EDYzJwYQAAABZcanVtYgAAAEdqdW1kYzJtYQARABCAAACqADibcQN1cm46YzJwYTo4ZGE3MThmMy1jZDk2LTQyYjgtOGU3NC1kZDI3NjcyYTczODEAAAADl2p1bWIAAAApanVtZGMyYXMAEQAQgAAAqgA4m3EDYzJwYS5hc3NlcnRpb25zAAAAALxqdW1iAAAARGp1bWRjYm9yABEAEIAAAKoAOJtxE2MycGEuaW5ncmVkaWVudC52MwAAAAAYYzJzaLBuK9IZ0uBw0UW9JaHWNPkAAABwY2JvcqNpZGM6Zm9ybWF0bWltYWdlL3N2Zyt4bWxqaW5zdGFuY2VJRHgseG1wOmlpZDowZDEyODFmOC01ZDcxLTQ0ZjctOGFlYi1kYjI4Y2U1ZTViNGRscmVsYXRpb25zaGlwaHBhcmVudE9mAAAB4mp1bWIAAABBanVtZGNib3IAEQAQgAAAqgA4m3ETYzJwYS5hY3Rpb25zLnYyAAAAABhjMnNor0qNl69uf3DbDRODvPXrYAAAAZljYm9yomdhY3Rpb25zgqJmYWN0aW9ua2MycGEub3BlbmVkanBhcmFtZXRlcnOha2luZ3JlZGllbnRzgaJjdXJseC1zZWxmI2p1bWJmPWMycGEuYXNzZXJ0aW9ucy9jMnBhLmluZ3JlZGllbnQudjNkaGFzaFgghyMCvyWpjMNGwpqEDGCC/Mh52bvBb83Iab0mjqTV332kZmFjdGlvbngdY29tLmFudGhyb3BpYy5jbGF1ZGUucHJvdmlkZWRqcGFyYW1ldGVyc6F4H2NvbS5hbnRocm9waWMub3JpZ2luLWNvbmZpZGVuY2VndW5rbm93bmtkZXNjcmlwdGlvbnhmQ2xhdWRlIHByb3ZpZGVkIHRoaXMgZmlsZSBhdCB0aGUgcmVxdWVzdCBvZiBhIHVzZXIgYW5kIG1heSBoYXZlIGNyZWF0ZWQgb3IgbW9kaWZpZWQgdGhlIGZpbGUgY29udGVudHMubXNvZnR3YXJlQWdlbnShZG5hbWVmQ2xhdWRlcmFsbEFjdGlvbnNJbmNsdWRlZPUAAADIanVtYgAAAEBqdW1kY2JvcgARABCAAACqADibcRNjMnBhLmhhc2guZGF0YQAAAAAYYzJzaCkVfid6EwF6y5EDqh4R/lQAAACAY2JvcqVjYWxnZnNoYTI1NmNwYWRNAAAAAAAAAAAAAAAAAGRoYXNoWCAuo0Phl9ZE+YdsnAgz+yWaqsVDEM+undBw+YCznWlXIGRuYW1lbmp1bWJmIG1hbmlmZXN0amV4Y2x1c2lvbnOBomVzdGFydBiMZmxlbmd0aBkeBAAAAj5qdW1iAAAAJ2p1bWRjMmNsABEAEIAAAKoAOJtxA2MycGEuY2xhaW0udjIAAAACD2Nib3KlY2FsZ2ZzaGEyNTZpc2lnbmF0dXJleE1zZWxmI2p1bWJmPS9jMnBhL3VybjpjMnBhOjhkYTcxOGYzLWNkOTYtNDJiOC04ZTc0LWRkMjc2NzJhNzM4MS9jMnBhLnNpZ25hdHVyZWppbnN0YW5jZUlEeCx4bXA6aWlkOjc1M2NkYzhhLWY2YjYtNDFlOC04MzgyLWIzYjQ0ZTE4ZDY3MXJjcmVhdGVkX2Fzc2VydGlvbnODomN1cmx4LXNlbGYjanVtYmY9YzJwYS5hc3NlcnRpb25zL2MycGEuaW5ncmVkaWVudC52M2RoYXNoWCCHIwK/JamMw0bCmoQMYIL8yHnZu8FvzchpvSaOpNXffaJjdXJseCpzZWxmI2p1bWJmPWMycGEuYXNzZXJ0aW9ucy9jMnBhLmFjdGlvbnMudjJkaGFzaFgg3KIdP5XbYcV2n2XZUqzLOE0mIMEpMNS0yb2c/ob1tHmiY3VybHgpc2VsZiNqdW1iZj1jMnBhLmFzc2VydGlvbnMvYzJwYS5oYXNoLmRhdGFkaGFzaFgg8bIJIoPkblf8m1oBhjToB8hd3ANZsQ31NgxpyDqaBlx0Y2xhaW1fZ2VuZXJhdG9yX2luZm+jZG5hbWVvQW50aHJvcGljIEZpbGVzZ3ZlcnNpb25lMS4wLjBrc3BlY1ZlcnNpb25lMi40LjAAABA4anVtYgAAAChqdW1kYzJjcwARABCAAACqADibcQNjMnBhLnNpZ25hdHVyZQAAABAIY2JvctKEWQISogEmGCFZAgowggIGMIIBjaADAgECAhRA5aAK7sI50L64g/oGQgU9Z1UTADAKBggqhkjOPQQDAzBJMRcwFQYDVQQKEw5BbnRocm9waWMsIFBCQzEuMCwGA1UEAxMlQW50aHJvcGljIENvbnRlbnQgQ3JlZGVudGlhbHMgUm9vdCBDQTAeFw0yNjA4MDcxODQzNTZaFw0yODA4MDYxOTQzNTZaMEQxFzAVBgNVBAoTDkFudGhyb3BpYywgUEJDMSkwJwYDVQQDEyBBbnRocm9waWMgQ2xhdWRlIENvbnRlbnQgU2lnbmluZzBZMBMGByqGSM49AgEGCCqGSM49AwEHA0IABJh6CmvLUBgFFNU0vUKlOVtE6djd17L5SuwX0LemFisBM3dkd/3cyjxFA3Qo5S46fX0/ihY0VZ7mfb9KF703t5OjWDBWMA4GA1UdDwEB/wQEAwIHgDAVBgNVHSUEDjAMBgorBgEEAYPoXgIBMAwGA1UdEwEB/wQCMAAwHwYDVR0jBBgwFoAUzlHiBIFOZFsj+OPEz5o+nMHXXMIwCgYIKoZIzj0EAwMDZwAwZAIwMXMdFJ4BetLLVY7ORuE9noqbbAZOZn/aArXyTwFAZfKrPzxF2vPoJNf1+UCdg1XGAjBwX1zd9WGqYkqmL5SFqw1QySjr1zJfpJM9+1rdDwSPLMOPOjKuiXjoU/pUUeG9RwmhY3BhZFkNngAAAAAAAAAAAAAAAAAAAAAAAAAAAAAAAAAAAAAAAAAAAAAAAAAAAAAAAAAAAAAAAAAAAAAAAAAAAAAAAAAAAAAAAAAAAAAAAAAAAAAAAAAAAAAAAAAAAAAAAAAAAAAAAAAAAAAAAAAAAAAAAAAAAAAAAAAAAAAAAAAAAAAAAAAAAAAAAAAAAAAAAAAAAAAAAAAAAAAAAAAAAAAAAAAAAAAAAAAAAAAAAAAAAAAAAAAAAAAAAAAAAAAAAAAAAAAAAAAAAAAAAAAAAAAAAAAAAAAAAAAAAAAAAAAAAAAAAAAAAAAAAAAAAAAAAAAAAAAAAAAAAAAAAAAAAAAAAAAAAAAAAAAAAAAAAAAAAAAAAAAAAAAAAAAAAAAAAAAAAAAAAAAAAAAAAAAAAAAAAAAAAAAAAAAAAAAAAAAAAAAAAAAAAAAAAAAAAAAAAAAAAAAAAAAAAAAAAAAAAAAAAAAAAAAAAAAAAAAAAAAAAAAAAAAAAAAAAAAAAAAAAAAAAAAAAAAAAAAAAAAAAAAAAAAAAAAAAAAAAAAAAAAAAAAAAAAAAAAAAAAAAAAAAAAAAAAAAAAAAAAAAAAAAAAAAAAAAAAAAAAAAAAAAAAAAAAAAAAAAAAAAAAAAAAAAAAAAAAAAAAAAAAAAAAAAAAAAAAAAAAAAAAAAAAAAAAAAAAAAAAAAAAAAAAAAAAAAAAAAAAAAAAAAAAAAAAAAAAAAAAAAAAAAAAAAAAAAAAAAAAAAAAAAAAAAAAAAAAAAAAAAAAAAAAAAAAAAAAAAAAAAAAAAAAAAAAAAAAAAAAAAAAAAAAAAAAAAAAAAAAAAAAAAAAAAAAAAAAAAAAAAAAAAAAAAAAAAAAAAAAAAAAAAAAAAAAAAAAAAAAAAAAAAAAAAAAAAAAAAAAAAAAAAAAAAAAAAAAAAAAAAAAAAAAAAAAAAAAAAAAAAAAAAAAAAAAAAAAAAAAAAAAAAAAAAAAAAAAAAAAAAAAAAAAAAAAAAAAAAAAAAAAAAAAAAAAAAAAAAAAAAAAAAAAAAAAAAAAAAAAAAAAAAAAAAAAAAAAAAAAAAAAAAAAAAAAAAAAAAAAAAAAAAAAAAAAAAAAAAAAAAAAAAAAAAAAAAAAAAAAAAAAAAAAAAAAAAAAAAAAAAAAAAAAAAAAAAAAAAAAAAAAAAAAAAAAAAAAAAAAAAAAAAAAAAAAAAAAAAAAAAAAAAAAAAAAAAAAAAAAAAAAAAAAAAAAAAAAAAAAAAAAAAAAAAAAAAAAAAAAAAAAAAAAAAAAAAAAAAAAAAAAAAAAAAAAAAAAAAAAAAAAAAAAAAAAAAAAAAAAAAAAAAAAAAAAAAAAAAAAAAAAAAAAAAAAAAAAAAAAAAAAAAAAAAAAAAAAAAAAAAAAAAAAAAAAAAAAAAAAAAAAAAAAAAAAAAAAAAAAAAAAAAAAAAAAAAAAAAAAAAAAAAAAAAAAAAAAAAAAAAAAAAAAAAAAAAAAAAAAAAAAAAAAAAAAAAAAAAAAAAAAAAAAAAAAAAAAAAAAAAAAAAAAAAAAAAAAAAAAAAAAAAAAAAAAAAAAAAAAAAAAAAAAAAAAAAAAAAAAAAAAAAAAAAAAAAAAAAAAAAAAAAAAAAAAAAAAAAAAAAAAAAAAAAAAAAAAAAAAAAAAAAAAAAAAAAAAAAAAAAAAAAAAAAAAAAAAAAAAAAAAAAAAAAAAAAAAAAAAAAAAAAAAAAAAAAAAAAAAAAAAAAAAAAAAAAAAAAAAAAAAAAAAAAAAAAAAAAAAAAAAAAAAAAAAAAAAAAAAAAAAAAAAAAAAAAAAAAAAAAAAAAAAAAAAAAAAAAAAAAAAAAAAAAAAAAAAAAAAAAAAAAAAAAAAAAAAAAAAAAAAAAAAAAAAAAAAAAAAAAAAAAAAAAAAAAAAAAAAAAAAAAAAAAAAAAAAAAAAAAAAAAAAAAAAAAAAAAAAAAAAAAAAAAAAAAAAAAAAAAAAAAAAAAAAAAAAAAAAAAAAAAAAAAAAAAAAAAAAAAAAAAAAAAAAAAAAAAAAAAAAAAAAAAAAAAAAAAAAAAAAAAAAAAAAAAAAAAAAAAAAAAAAAAAAAAAAAAAAAAAAAAAAAAAAAAAAAAAAAAAAAAAAAAAAAAAAAAAAAAAAAAAAAAAAAAAAAAAAAAAAAAAAAAAAAAAAAAAAAAAAAAAAAAAAAAAAAAAAAAAAAAAAAAAAAAAAAAAAAAAAAAAAAAAAAAAAAAAAAAAAAAAAAAAAAAAAAAAAAAAAAAAAAAAAAAAAAAAAAAAAAAAAAAAAAAAAAAAAAAAAAAAAAAAAAAAAAAAAAAAAAAAAAAAAAAAAAAAAAAAAAAAAAAAAAAAAAAAAAAAAAAAAAAAAAAAAAAAAAAAAAAAAAAAAAAAAAAAAAAAAAAAAAAAAAAAAAAAAAAAAAAAAAAAAAAAAAAAAAAAAAAAAAAAAAAAAAAAAAAAAAAAAAAAAAAAAAAAAAAAAAAAAAAAAAAAAAAAAAAAAAAAAAAAAAAAAAAAAAAAAAAAAAAAAAAAAAAAAAAAAAAAAAAAAAAAAAAAAAAAAAAAAAAAAAAAAAAAAAAAAAAAAAAAAAAAAAAAAAAAAAAAAAAAAAAAAAAAAAAAAAAAAAAAAAAAAAAAAAAAAAAAAAAAAAAAAAAAAAAAAAAAAAAAAAAAAAAAAAAAAAAAAAAAAAAAAAAAAAAAAAAAAAAAAAAAAAAAAAAAAAAAAAAAAAAAAAAAAAAAAAAAAAAAAAAAAAAAAAAAAAAAAAAAAAAAAAAAAAAAAAAAAAAAAAAAAAAAAAAAAAAAAAAAAAAAAAAAAAAAAAAAAAAAAAAAAAAAAAAAAAAAAAAAAAAAAAAAAAAAAAAAAAAAAAAAAAAAAAAAAAAAAAAAAAAAAAAAAAAAAAAAAAAAAAAAAAAAAAAAAAAAAAAAAAAAAAAAAAAAAAAAAAAAAAAAAAAAAAAAAAAAAAAAAAAAAAAAAAAAAAAAAAAAAAAAAAAAAAAAAAAAAAAAAAAAAAAAAAAAAAAAAAAAAAAAAAAAAAAAAAAAAAAAAAAAAAAAAAAAAAAAAAAAAAAAAAAAAAAAAAAAAAAAAAAAAAAAAAAAAAAAAAAAAAAAAAAAAAAAAAAAAAAAAAAAAAAAAAAAAAAAAAAAAAAAAAAAAAAAAAAAAAAAAAAAAAAAAAAAAAAAAAAAAAAAAAAAAAAAAAAAAAAAAAAAAAAAAAAAAAAAAAAAAAAAAAAAAAAAAAAAAAAAAAAAAAAAAAAAAAAAAAAAAAAAAAAAAAAAAAAAAAAAAAAAAAAAAAAAAAAAAAAAAAAAAAAAAAAAAAAAAAAAAAAAAAAAAAAAAAAAAAAAAAAAAAAAAAAAAAAAAAAAAAAAAAAAAAAAAAAAAAAAAAAAAAAAAAAAAAAAAAAAAAAAAAAAAAAAAAAAAAAAAAAAAAAAAAAAAAAAAAAAAAAAAAAAAAAAAAAAAAAAAAAAAAAAAAAAAAAAAAAAAAAAAAAAAAAAAAAAAAAAAAAAAAAAAAAAAAAAAAAAAAAAAAAAAAAAAAAAAAAAAAAAAAAAAAAAAAAAAAAAAAAAAAAAAAAAAAAAAAAAAAAAAAAAAAAAAAAAAAAAAAAAAAAAAAAAAAAAAAAAAAAAAAAAAAAAAAAAAAAAAAAAAAAAAAAAAAAAAAAAAAAAAAAAAAAAAAAAAAAAAAAAAAAAAAAAAAAAAAAAAAAAAAAAAAAAAAAAAAAAAAAAAAAAAAAAAAAAAAAAAAAAAAAAAAAAAAAAAAAAAAAAAAAAAAAAAAAAAAAAAAAAAAAAAAAAAAAAAAAAAAAAAAAAAAAAAAAAAAAAAAAAAAAAAAAAAAAAAAAAAAAAAAAAAAAAAAAAAAAAAAAAAAAAAAAAAAAAAAAAAAAAAAAAAAAAAAAAAAAAAAAAAAAAAAAAAAAAAAAAAAAAAAAAAAAAAAAAAAAAAAAAAAAAAAAAAAAAAAAAAAAAAAAAAAAAAAAAAAAAAAAAAAAAAAAAAAAAAAAAAAAAAAAAAAAAAAAAAAAAAAAAAAAAAAAAAAAAAAAAAAAAAAAAAAAAAAAAAAAAAAAAAAAAAAAAAAAAAAAAAAAAAAAAAAAAAAAAAAAAAAAAAAAAAAAAAAAAAAAAAAAAAAAAAAAAAAAAAAAAAAAAAAAAAAAAAAAAAAAAAAAAAAAAAAAAAAAAAAAAAAAAAAAAAAAAAAAAAAAAAAAAAAAAAAAAAAAAAAAAAAAAAAAAAAAAAAAAAAAAAAAAAAAAAAAAAAAAAAAAAAAAAAAAAAAAAAAAAAAAAAAAAAAAAAAAAAAAAAAAAAAAAAAAAAAAAAAAAAAAAAAAAAAAAAAAAAAAAAAAAAAAAAAAAAAAAAAAAAAAAAAAAAAAAAAAAAAAAAAAAAAAAAAAAAAAAAAAAAAAAAAAAAAAAAAAAAAAAAAAAAAAAAAAAAAAAAAAAAAAAAAAAAAAAAAAAAAAAAAAAAAAAAAAAAAAAAAAAAAAAAAAAAAAAAAAAAAAAAAAAAAAAAAAAAAAAAAAAAAAAAAAAAAAAAAAAAAAAAAAAAAAAAAAAAAAAAAAAAAAAAAAAAAAAAAAAAAAAAAAAAAAAAAAAAAAAAAAAAAAAAAAAAAAAAAAAAAAAAAAAAAAAAAAAAAAAAAAAAAAAAAAAAAAAAAAAAAPZYQOqHsaMDApQ4zg0Qba08jMvSP6lRe9VBUXK6znbhDbFUk6mT01Uu1bVe973B3OrCHhrfWJ6nfocJEZSslzN7h4U=</c2pa:manifest></metadata><path fill="#6D6D6D" d="M18.81 162v-7.7h2.57q.87 0 1.44.32a2 2 0 0 1 .82.85q.27.53.27 1.16 0 .64-.27 1.17a2 2 0 0 1-.82.84q-.57.32-1.44.32h-1.64V162zm.93-3.88h1.62q.81 0 1.2-.41.4-.42.4-1.08t-.4-1.08-1.2-.41h-1.62zM25.5 162v-7.7h2.36q.9 0 1.47.3a2 2 0 0 1 .86.81q.3.5.3 1.16 0 .75-.4 1.34-.39.57-1.2.8l1.68 3.29h-1.1l-1.55-3.16h-1.5V162zm.92-4h1.41q.88 0 1.29-.4t.41-1.03q0-.67-.4-1.05t-1.31-.38h-1.4zm8.07 4.13q-.93 0-1.6-.5-.68-.48-1.04-1.38-.35-.9-.35-2.1t.35-2.09 1.04-1.4q.66-.5 1.6-.5.93 0 1.6.5.68.5 1.03 1.4.36.9.36 2.09 0 1.2-.36 2.1-.35.9-1.02 1.39-.68.5-1.6.5m0-.87q.91 0 1.48-.81t.57-2.3-.57-2.3a1.7 1.7 0 0 0-1.48-.81q-.92 0-1.48.81t-.56 2.3.56 2.3 1.48.81m6.05.74-2.46-7.7h1l2 6.5 2.02-6.5h1l-2.46 7.7zm4.79 0v-7.7h4.8v.84h-3.88v2.56h3.56v.84h-3.56v2.62h3.89v.84zm6.28 0v-7.7h.94l3.5 6.08v-6.08h.91v7.7h-.95l-3.5-6.08V162zM35.8 190v-9.1h5.66v.96h-4.5v3.08h4.11v.94h-4.1v3.16h4.5v.96zm6.99 0v-6.45h1.17v1.02q.22-.51.6-.78.37-.3.92-.29h.96v1.1h-1.08q-.42 0-.74.23-.3.22-.5.75a4 4 0 0 0-.16 1.35V190zm4.95 0v-6.45h1.17v1.02q.23-.51.6-.78.38-.3.92-.29h.96v1.1h-1.08q-.4 0-.74.23-.3.22-.5.75a4 4 0 0 0-.16 1.35V190zm7.25.16q-.95 0-1.7-.42a3 3 0 0 1-1.18-1.18 3.6 3.6 0 0 1-.43-1.78q0-1.03.43-1.78.45-.75 1.2-1.18a3.5 3.5 0 0 1 1.71-.42q.95 0 1.7.42a3 3 0 0 1 1.19 1.18q.42.75.42 1.78a3.5 3.5 0 0 1-.44 1.78q-.42.75-1.18 1.18a3.5 3.5 0 0 1-1.72.42m0-1q.6-.01 1.07-.26.5-.28.78-.81.3-.54.3-1.31 0-.8-.3-1.32-.3-.53-.77-.79a2.2 2.2 0 0 0-2.12 0q-.48.27-.78.8-.3.52-.3 1.3 0 .79.3 1.32.29.53.77.8t1.05.27m4.54.84v-6.45h1.17v1.02q.23-.51.6-.78.38-.3.92-.29h.97v1.1H62.1q-.42 0-.74.23-.32.22-.5.75a4 4 0 0 0-.17 1.35V190zm8.94 0v-6.45h1.17v1.02q.22-.51.6-.78.38-.3.92-.29h.96v1.1h-1.08q-.4 0-.74.23-.3.22-.5.75a4 4 0 0 0-.16 1.35V190zm6.71.16q-.78-.01-1.3-.26a2 2 0 0 1-.82-.72 2 2 0 0 1-.26-.96q0-1.06.76-1.6a3.3 3.3 0 0 1 2-.56 6 6 0 0 1 1.72.26v-.28q0-.84-.45-1.25a1.6 1.6 0 0 0-1.15-.43q-.6 0-1.04.24-.44.25-.54.84h-1.17q.09-.69.47-1.15.4-.46 1-.67t1.28-.22q1.38 0 2.06.72.7.72.7 1.91v1.94q0 .46.06.7.06.21.2.26t.4.06h.09V190h-.25q-.63 0-1.04-.2-.4-.22-.55-.84-.3.5-.83.86-.51.34-1.34.34m.19-.95q.57 0 .97-.29.42-.28.65-.75t.26-1l-.73-.15a5 5 0 0 0-.86-.08q-.87 0-1.28.36-.4.33-.4.85 0 .46.36.76t1.03.3m6.91.79q-.54 0-.92-.13-.37-.15-.57-.52-.18-.37-.18-1.07v-3.74h-1.12v-.99h1.12v-1.57h1.17v1.57h1.82v.99h-1.82v3.56q0 .42.06.61.07.2.27.25t.6.04h.8v1zm5.05.16a3.3 3.3 0 0 1-1.67-.42 3 3 0 0 1-1.13-1.18 4 4 0 0 1-.4-1.77q0-1.03.4-1.78.4-.76 1.13-1.19a3 3 0 0 1 1.68-.42 2.97 2.97 0 0 1 3.05 3.04v.6h-5.4v-.86h4.25a1.8 1.8 0 0 0-.59-1.33q-.53-.48-1.34-.48-.54 0-1.01.25-.46.24-.76.71-.27.47-.27 1.17v.35q0 .77.29 1.3.28.51.75.77t1 .26q.66 0 1.1-.3.43-.3.64-.82h1.16a3 3 0 0 1-.56 1.07q-.39.48-.99.75-.58.28-1.33.28m8.38-.16v-6.45h1.17v1.02q.22-.51.6-.78.38-.3.93-.29h.96v1.1h-1.08q-.42 0-.74.23-.32.22-.5.75a4 4 0 0 0-.17 1.35V190zm7.14.16a3.3 3.3 0 0 1-1.66-.42 3 3 0 0 1-1.13-1.18 4 4 0 0 1-.4-1.77q0-1.03.4-1.78.4-.76 1.13-1.19a3 3 0 0 1 1.67-.42 2.97 2.97 0 0 1 3.06 3.04v.28l-.01.32h-5.38v-.86h4.23a1.8 1.8 0 0 0-.58-1.33q-.53-.48-1.34-.48-.55 0-1.02.25-.46.24-.75.71-.27.47-.27 1.17v.35q0 .77.28 1.3a1.9 1.9 0 0 0 1.76 1.03q.65 0 1.1-.3.43-.3.64-.82h1.16a3 3 0 0 1-.56 1.07q-.39.48-.99.75-.58.28-1.34.28m7.28 0q-.92 0-1.67-.43a3 3 0 0 1-1.15-1.19 3.6 3.6 0 0 1-.43-1.76q0-1.02.43-1.77a3.2 3.2 0 0 1 2.82-1.61q1.17 0 1.95.6.79.6 1.01 1.62h-1.2q-.14-.57-.63-.9-.48-.32-1.13-.32-.54 0-1.02.27a2 2 0 0 0-.75.8q-.3.53-.29 1.3 0 .78.29 1.3a2 2 0 0 0 1.77 1.09q.64 0 1.13-.32.5-.32.62-.9h1.21a2.7 2.7 0 0 1-1 1.6q-.8.62-1.96.62m7.2 0q-.95 0-1.7-.42a3 3 0 0 1-1.19-1.18 3.6 3.6 0 0 1-.43-1.78q0-1.03.43-1.78.45-.75 1.2-1.18a3.5 3.5 0 0 1 1.71-.42q.95 0 1.7.42t1.19 1.18.43 1.78a3.5 3.5 0 0 1-.44 1.78q-.43.75-1.19 1.18a3.5 3.5 0 0 1-1.71.42m0-1q.58-.01 1.06-.26.5-.28.78-.81.3-.54.3-1.31 0-.8-.3-1.32-.28-.53-.76-.79a2.2 2.2 0 0 0-2.12 0q-.48.27-.78.8-.3.52-.3 1.3 0 .79.29 1.32.3.53.78.8.47.27 1.05.27m6.19.84-2.45-6.45h1.24l1.9 5.33 1.9-5.33h1.2l-2.43 6.45zm7.39.16a3.3 3.3 0 0 1-1.66-.42 3 3 0 0 1-1.14-1.18 4 4 0 0 1-.4-1.77q0-1.03.4-1.78.4-.76 1.13-1.19a3 3 0 0 1 1.68-.42 2.97 2.97 0 0 1 3.06 3.04v.28l-.02.32h-5.38v-.86h4.24a1.8 1.8 0 0 0-.58-1.33q-.54-.48-1.34-.48-.55 0-1.02.25-.47.24-.75.71-.27.47-.28 1.17v.35q0 .77.3 1.3a1.9 1.9 0 0 0 1.75 1.03q.65 0 1.09-.3t.65-.82h1.16a3 3 0 0 1-.56 1.07q-.4.48-1 .75-.58.28-1.33.28m4.4-.16v-6.45h1.17v1.02q.22-.51.6-.78.38-.3.92-.29h.96v1.1h-1.08q-.4 0-.74.23-.3.22-.49.75-.17.51-.17 1.35V190zm7.14.16a3.3 3.3 0 0 1-1.66-.42 3 3 0 0 1-1.14-1.18 4 4 0 0 1-.4-1.77q0-1.03.4-1.78.4-.76 1.13-1.19a3 3 0 0 1 1.68-.42 2.97 2.97 0 0 1 3.06 3.04v.28l-.02.32h-5.38v-.86h4.24a1.8 1.8 0 0 0-.59-1.33q-.53-.48-1.33-.48-.55 0-1.02.25-.47.24-.75.71-.27.47-.27 1.17v.35q0 .77.28 1.3a1.9 1.9 0 0 0 1.76 1.03q.65 0 1.09-.3t.65-.82h1.16a3 3 0 0 1-.56 1.07q-.4.48-1 .75-.57.28-1.33.28m7.22 0q-.96 0-1.67-.45-.72-.45-1.12-1.2a4 4 0 0 1-.4-1.75q0-.97.4-1.73.4-.75 1.12-1.2.72-.43 1.67-.43.8 0 1.4.32.6.3.93.88v-3.96h1.17V190H152v-1.05q-.3.46-.88.84a2.6 2.6 0 0 1-1.45.37m.16-1.02q.63 0 1.12-.3.48-.3.75-.83t.27-1.23-.27-1.24a2 2 0 0 0-.75-.83q-.48-.3-1.12-.3-.63 0-1.12.3t-.77.83-.27 1.24q0 .7.27 1.23a2 2 0 0 0 1.89 1.13M35.9 216v-9.1h2.82q1.6 0 2.64.56 1.03.55 1.53 1.57.5 1.03.5 2.43t-.5 2.42a3.5 3.5 0 0 1-1.53 1.57 5.6 5.6 0 0 1-2.64.55zm1.17-.99h1.62q1.3 0 2.06-.41.76-.43 1.1-1.23t.34-1.9-.34-1.92-1.1-1.23q-.76-.44-2.06-.44h-1.62zm10.25 1.15a3.3 3.3 0 0 1-1.66-.42 3 3 0 0 1-1.13-1.18 4 4 0 0 1-.4-1.77q0-1.03.4-1.78.4-.76 1.13-1.19a3 3 0 0 1 1.68-.42 2.97 2.97 0 0 1 3.05 3.04v.28l-.01.32H45v-.86h4.23a1.8 1.8 0 0 0-.58-1.33q-.53-.48-1.34-.48-.54 0-1.01.25-.48.24-.76.71-.27.47-.27 1.17v.35q0 .77.28 1.3.3.51.76.77t1 .26q.65 0 1.1-.3.43-.3.64-.82h1.16a3 3 0 0 1-.56 1.07q-.39.48-.99.75-.58.28-1.34.28m4.35 2.7v-9.3h1.17v1.04q.31-.45.89-.83a2.6 2.6 0 0 1 1.45-.37q.96 0 1.67.44.71.45 1.12 1.2.4.78.4 1.75t-.4 1.74q-.41.75-1.12 1.2a3 3 0 0 1-1.68.43q-.8 0-1.4-.32a2.4 2.4 0 0 1-.93-.9v3.92zm3.34-3.72a2.1 2.1 0 0 0 1.89-1.13q.29-.53.29-1.23t-.3-1.24a2 2 0 0 0-1.88-1.13q-.61 0-1.11.3-.49.3-.76.83-.27.54-.27 1.24t.27 1.23.76.83q.5.3 1.11.3m4.55.86v-9.36h1.17V216zm5.7.16q-.95 0-1.71-.42a3 3 0 0 1-1.18-1.18 3.6 3.6 0 0 1-.43-1.78q0-1.03.43-1.78.44-.75 1.2-1.18a3.5 3.5 0 0 1 1.7-.42q.95 0 1.71.42a3 3 0 0 1 1.18 1.18q.43.75.43 1.78a3.5 3.5 0 0 1-.44 1.78q-.43.75-1.18 1.18a3.5 3.5 0 0 1-1.72.42m0-1q.57-.01 1.06-.26.5-.28.78-.81.3-.54.3-1.31 0-.8-.3-1.32-.3-.53-.77-.79a2.2 2.2 0 0 0-2.12 0q-.48.27-.78.8-.3.52-.3 1.3 0 .79.29 1.32.3.53.78.8t1.05.27m3.8 3.7v-.96h1.32q.18 0 .3-.07.12-.04.24-.24t.29-.59l.73-1.6-.1.61-2.83-6.46h1.26l2.1 4.95 2.2-4.95h1.23l-3.5 7.76-.4.84q-.17.3-.33.45a1 1 0 0 1-.34.2 2 2 0 0 1-.48.06zm13.5-2.86-1.88-6.45h1.17l1.47 5.54-.3-.01 1.68-5.53H86l1.68 5.53-.3.01 1.47-5.54h1.17L88.15 216h-1.2l-1.75-5.77h.31L83.76 216zm8.64 0v-6.45h1.17V216zm-.13-7.68v-1.43h1.41v1.43zM93.9 216v-6.45h1.17v1.07q.31-.57.89-.9.57-.32 1.3-.32 1.14 0 1.82.7.67.7.67 2.16V216H98.6v-3.63q0-.99-.41-1.48-.4-.5-1.21-.5-.83 0-1.35.6-.54.6-.54 1.67V216zm10.23.16q-.96 0-1.68-.45t-1.12-1.2q-.4-.78-.4-1.75t.4-1.73 1.12-1.2 1.68-.43q.8 0 1.39.32.6.3.93.88v-3.96h1.17V216h-1.17v-1.05q-.3.46-.88.84a2.6 2.6 0 0 1-1.44.37m.15-1.02q.64 0 1.12-.3t.75-.83.28-1.23-.28-1.24a2 2 0 0 0-.75-.83q-.48-.3-1.12-.3-.62 0-1.11.3t-.77.83-.28 1.24q0 .7.28 1.23a2 2 0 0 0 1.88 1.13m7.8 1.02q-.95 0-1.7-.42a3 3 0 0 1-1.19-1.18 3.6 3.6 0 0 1-.43-1.78q0-1.03.43-1.78.45-.75 1.2-1.18a3.5 3.5 0 0 1 1.71-.42q.95 0 1.7.42a3 3 0 0 1 1.19 1.18q.42.75.43 1.78a3.5 3.5 0 0 1-.44 1.78q-.43.75-1.19 1.18a3.5 3.5 0 0 1-1.71.42m0-1q.58-.01 1.06-.26.5-.28.78-.81.3-.54.3-1.31 0-.8-.3-1.32a2 2 0 0 0-.76-.79 2.2 2.2 0 0 0-2.12 0q-.48.27-.78.8-.3.52-.3 1.3 0 .79.28 1.32.3.53.78.8t1.06.27m5.78.84-1.88-6.45h1.17l1.47 5.54-.3-.01 1.67-5.53h1.33l1.68 5.53-.3.01 1.47-5.54h1.17l-1.89 6.45h-1.2l-1.75-5.77h.31l-1.75 5.77zm-82.07 18v-6.45h1.17v.89q.3-.5.82-.77t1.15-.27q.75 0 1.31.3.57.33.85.94.34-.58.92-.9.6-.34 1.29-.34 1.17 0 1.86.7t.7 2.16V234h-1.17v-3.63q0-.99-.39-1.48-.39-.5-1.14-.5-.76 0-1.26.6t-.5 1.67V234h-1.16v-3.63q0-.99-.4-1.48-.38-.5-1.13-.5t-1.26.6-.5 1.67V234zm13.72.16q-.78-.01-1.32-.26a2 2 0 0 1-.8-.72 2 2 0 0 1-.26-.96q0-1.06.75-1.6a3.3 3.3 0 0 1 2-.56 6 6 0 0 1 1.72.26v-.28q0-.84-.44-1.25a1.6 1.6 0 0 0-1.16-.43q-.6 0-1.04.24-.43.25-.53.84h-1.17q.07-.69.47-1.15t1-.67 1.27-.22q1.37 0 2.07.72t.7 1.91v1.94q0 .46.05.7.06.21.2.26t.4.06h.09V234h-.25q-.63 0-1.04-.2-.4-.22-.54-.84-.3.5-.83.86-.53.34-1.34.34m.18-.95q.57 0 .97-.29.42-.28.65-.75t.26-1l-.72-.15a5 5 0 0 0-.86-.08q-.9 0-1.29.36-.39.33-.39.85 0 .46.35.76.37.3 1.03.3m6.92.79q-.56 0-.93-.13-.37-.15-.57-.52-.18-.37-.18-1.07v-3.74h-1.12v-.99h1.12v-1.57h1.17v1.57h1.82v.99H56.1v3.56q0 .42.06.61.07.2.28.25.2.04.6.04h.79v1zm5.08.16q-.92 0-1.67-.43a3 3 0 0 1-1.15-1.19 3.6 3.6 0 0 1-.43-1.76q0-1.02.43-1.77a3.2 3.2 0 0 1 2.82-1.61q1.17 0 1.95.6.79.6 1.01 1.62h-1.2q-.14-.57-.63-.9-.48-.32-1.13-.32-.54 0-1.02.27a2 2 0 0 0-.75.8q-.3.53-.29 1.3 0 .78.29 1.3a2 2 0 0 0 .75.81q.48.27 1.02.28.64 0 1.13-.32.5-.32.62-.9h1.21a2.7 2.7 0 0 1-1 1.6q-.8.62-1.96.62m4.2-.16v-9.36h1.18v4q.32-.58.9-.9.6-.34 1.3-.34 1.14 0 1.8.7.68.7.68 2.16V234H70.6v-3.63q0-.99-.4-1.48-.4-.5-1.19-.5-.81 0-1.37.6t-.56 1.67V234zm10.28.16a3.3 3.3 0 0 1-1.66-.42 3 3 0 0 1-1.13-1.18 4 4 0 0 1-.4-1.77q0-1.03.4-1.78.4-.76 1.13-1.19a3 3 0 0 1 1.68-.42 2.97 2.97 0 0 1 3.05 3.04v.28l-.01.32h-5.38v-.86h4.23a1.8 1.8 0 0 0-.58-1.33q-.53-.48-1.34-.48-.54 0-1.01.25-.48.24-.76.71-.27.47-.27 1.17v.35q0 .77.28 1.3.3.51.76.77t1 .26q.65 0 1.1-.3.43-.3.64-.82h1.16a3 3 0 0 1-.56 1.07q-.39.48-.99.75-.59.28-1.34.28m7.23 0q-.97 0-1.68-.45-.72-.45-1.12-1.2-.4-.78-.4-1.75t.4-1.73 1.12-1.2 1.68-.43q.78 0 1.39.32.6.3.93.88v-3.96h1.17V234h-1.17v-1.05q-.3.46-.88.84a2.6 2.6 0 0 1-1.44.37m.15-1.02q.64 0 1.12-.3t.75-.83.28-1.23-.28-1.24a2 2 0 0 0-.75-.83q-.48-.3-1.12-.3-.62 0-1.12.3t-.76.83q-.28.52-.28 1.24 0 .7.28 1.23a2 2 0 0 0 1.88 1.13"/></svg>