<svg xmlns="http://www.w3.org/2000/svg" width="527" height="265" fill="none" xmlns:c2pa="http://c2pa.org/manifest"><metadata><c2pa:manifest>AAAWgmp1bWIAAAAeanVtZGMycGEAEQAQgAAAqgA4m3EDYzJwYQAAABZcanVtYgAAAEdqdW1kYzJtYQARABCAAACqADibcQN1cm46YzJwYTozY2QwZmIxNS1hMThlLTQ3ZTUtYjM0ZC1hZDYyMmJjNmJiYTAAAAADl2p1bWIAAAApanVtZGMyYXMAEQAQgAAAqgA4m3EDYzJwYS5hc3NlcnRpb25zAAAAALxqdW1iAAAARGp1bWRjYm9yABEAEIAAAKoAOJtxE2MycGEuaW5ncmVkaWVudC52MwAAAAAYYzJzaOZ+sVQlRTFsqZCEWiaPHb4AAABwY2JvcqNpZGM6Zm9ybWF0bWltYWdlL3N2Zyt4bWxqaW5zdGFuY2VJRHgseG1wOmlpZDo0MjliMTM3Yi00YjY3LTRlMmItOTQxYy01YWZkZTU2MTlhODRscmVsYXRpb25zaGlwaHBhcmVudE9mAAAB4mp1bWIAAABBanVtZGNib3IAEQAQgAAAqgA4m3ETYzJwYS5hY3Rpb25zLnYyAAAAABhjMnNo6yTWCSbs62j1uQBYZuxl4AAAAZljYm9yomdhY3Rpb25zgqJmYWN0aW9ua2MycGEub3BlbmVkanBhcmFtZXRlcnOha2luZ3JlZGllbnRzgaJjdXJseC1zZWxmI2p1bWJmPWMycGEuYXNzZXJ0aW9ucy9jMnBhLmluZ3JlZGllbnQudjNkaGFzaFggNA693rAe4lArQdInDlBdWUUNE7soLgOlUt8sBBTiZLukZmFjdGlvbngdY29tLmFudGhyb3BpYy5jbGF1ZGUucHJvdmlkZWRqcGFyYW1ldGVyc6F4H2NvbS5hbnRocm9waWMub3JpZ2luLWNvbmZpZGVuY2VndW5rbm93bmtkZXNjcmlwdGlvbnhmQ2xhdWRlIHByb3ZpZGVkIHRoaXMgZmlsZSBhdCB0aGUgcmVxdWVzdCBvZiBhIHVzZXIgYW5kIG1heSBoYXZlIGNyZWF0ZWQgb3IgbW9kaWZpZWQgdGhlIGZpbGUgY29udGVudHMubXNvZnR3YXJlQWdlbnShZG5hbWVmQ2xhdWRlcmFsbEFjdGlvbnNJbmNsdWRlZPUAAADIanVtYgAAAEBqdW1kY2JvcgARABCAAACqADibcRNjMnBhLmhhc2guZGF0YQAAAAAYYzJzaFyIj+oVIvYUKv/cykpgxegAAACAY2JvcqVjYWxnZnNoYTI1NmNwYWRNAAAAAAAAAAAAAAAAAGRoYXNoWCAKGqLlz0AHyTVQVbJmyM5+xQVTqLCPwBS0waSET/Yx3mRuYW1lbmp1bWJmIG1hbmlmZXN0amV4Y2x1c2lvbnOBomVzdGFydBiMZmxlbmd0aBkeBAAAAj5qdW1iAAAAJ2p1bWRjMmNsABEAEIAAAKoAOJtxA2MycGEuY2xhaW0udjIAAAACD2Nib3KlY2FsZ2ZzaGEyNTZpc2lnbmF0dXJleE1zZWxmI2p1bWJmPS9jMnBhL3VybjpjMnBhOjNjZDBmYjE1LWExOGUtNDdlNS1iMzRkLWFkNjIyYmM2YmJhMC9jMnBhLnNpZ25hdHVyZWppbnN0YW5jZUlEeCx4bXA6aWlkOmY1NjRmNmQzLTkzM2MtNGZjNS1iZGMzLTE4MTRjNzFkZDljMnJjcmVhdGVkX2Fzc2VydGlvbnODomN1cmx4LXNlbGYjanVtYmY9YzJwYS5hc3NlcnRpb25zL2MycGEuaW5ncmVkaWVudC52M2RoYXNoWCA0Dr3esB7iUCtB0icOUF1ZRQ0TuyguA6VS3ywEFOJku6JjdXJseCpzZWxmI2p1bWJmPWMycGEuYXNzZXJ0aW9ucy9jMnBhLmFjdGlvbnMudjJkaGFzaFggr/x2nTNvX54YNyJOJngc01/cCq8VvTSRA7Ysh2tZWE+iY3VybHgpc2VsZiNqdW1iZj1jMnBhLmFzc2VydGlvbnMvYzJwYS5oYXNoLmRhdGFkaGFzaFggAMlcNvbxiC6Kbh9I+8osjPLnUXYNlXOcBOcLzpOdpBp0Y2xhaW1fZ2VuZXJhdG9yX2luZm+jZG5hbWVvQW50aHJvcGljIEZpbGVzZ3ZlcnNpb25lMS4wLjBrc3BlY1ZlcnNpb25lMi40LjAAABA4anVtYgAAAChqdW1kYzJjcwARABCAAACqADibcQNjMnBhLnNpZ25hdHVyZQAAABAIY2JvctKEWQISogEmGCFZAgowggIGMIIBjaADAgECAhRA5aAK7sI50L64g/oGQgU9Z1UTADAKBggqhkjOPQQDAzBJMRcwFQYDVQQKEw5BbnRocm9waWMsIFBCQzEuMCwGA1UEAxMlQW50aHJvcGljIENvbnRlbnQgQ3JlZGVudGlhbHMgUm9vdCBDQTAeFw0yNjA4MDcxODQzNTZaFw0yODA4MDYxOTQzNTZaMEQxFzAVBgNVBAoTDkFudGhyb3BpYywgUEJDMSkwJwYDVQQDEyBBbnRocm9waWMgQ2xhdWRlIENvbnRlbnQgU2lnbmluZzBZMBMGByqGSM49AgEGCCqGSM49AwEHA0IABJh6CmvLUBgFFNU0vUKlOVtE6djd17L5SuwX0LemFisBM3dkd/3cyjxFA3Qo5S46fX0/ihY0VZ7mfb9KF703t5OjWDBWMA4GA1UdDwEB/wQEAwIHgDAVBgNVHSUEDjAMBgorBgEEAYPoXgIBMAwGA1UdEwEB/wQCMAAwHwYDVR0jBBgwFoAUzlHiBIFOZFsj+OPEz5o+nMHXXMIwCgYIKoZIzj0EAwMDZwAwZAIwMXMdFJ4BetLLVY7ORuE9noqbbAZOZn/aArXyTwFAZfKrPzxF2vPoJNf1+UCdg1XGAjBwX1zd9WGqYkqmL5SFqw1QySjr1zJfpJM9+1rdDwSPLMOPOjKuiXjoU/pUUeG9RwmhY3BhZFkNngAAAAAAAAAAAAAAAAAAAAAAAAAAAAAAAAAAAAAAAAAAAAAAAAAAAAAAAAAAAAAAAAAAAAAAAAAAAAAAAAAAAAAAAAAAAAAAAAAAAAAAAAAAAAAAAAAAAAAAAAAAAAAAAAAAAAAAAAAAAAAAAAAAAAAAAAAAAAAAAAAAAAAAAAAAAAAAAAAAAAAAAAAAAAAAAAAAAAAAAAAAAAAAAAAAAAAAAAAAAAAAAAAAAAAAAAAAAAAAAAAAAAAAAAAAAAAAAAAAAAAAAAAAAAAAAAAAAAAAAAAAAAAAAAAAAAAAAAAAAAAAAAAAAAAAAAAAAAAAAAAAAAAAAAAAAAAAAAAAAAAAAAAAAAAAAAAAAAAAAAAAAAAAAAAAAAAAAAAAAAAAAAAAAAAAAAAAAAAAAAAAAAAAAAAAAAAAAAAAAAAAAAAAAAAAAAAAAAAAAAAAAAAAAAAAAAAAAAAAAAAAAAAAAAAAAAAAAAAAAAAAAAAAAAAAAAAAAAAAAAAAAAAAAAAAAAAAAAAAAAAAAAAAAAAAAAAAAAAAAAAAAAAAAAAAAAAAAAAAAAAAAAAAAAAAAAAAAAAAAAAAAAAAAAAAAAAAAAAAAAAAAAAAAAAAAAAAAAAAAAAAAAAAAAAAAAAAAAAAAAAAAAAAAAAAAAAAAAAAAAAAAAAAAAAAAAAAAAAAAAAAAAAAAAAAAAAAAAAAAAAAAAAAAAAAAAAAAAAAAAAAAAAAAAAAAAAAAAAAAAAAAAAAAAAAAAAAAAAAAAAAAAAAAAAAAAAAAAAAAAAAAAAAAAAAAAAAAAAAAAAAAAAAAAAAAAAAAAAAAAAAAAAAAAAAAAAAAAAAAAAAAAAAAAAAAAAAAAAAAAAAAAAAAAAAAAAAAAAAAAAAAAAAAAAAAAAAAAAAAAAAAAAAAAAAAAAAAAAAAAAAAAAAAAAAAAAAAAAAAAAAAAAAAAAAAAAAAAAAAAAAAAAAAAAAAAAAAAAAAAAAAAAAAAAAAAAAAAAAAAAAAAAAAAAAAAAAAAAAAAAAAAAAAAAAAAAAAAAAAAAAAAAAAAAAAAAAAAAAAAAAAAAAAAAAAAAAAAAAAAAAAAAAAAAAAAAAAAAAAAAAAAAAAAAAAAAAAAAAAAAAAAAAAAAAAAAAAAAAAAAAAAAAAAAAAAAAAAAAAAAAAAAAAAAAAAAAAAAAAAAAAAAAAAAAAAAAAAAAAAAAAAAAAAAAAAAAAAAAAAAAAAAAAAAAAAAAAAAAAAAAAAAAAAAAAAAAAAAAAAAAAAAAAAAAAAAAAAAAAAAAAAAAAAAAAAAAAAAAAAAAAAAAAAAAAAAAAAAAAAAAAAAAAAAAAAAAAAAAAAAAAAAAAAAAAAAAAAAAAAAAAAAAAAAAAAAAAAAAAAAAAAAAAAAAAAAAAAAAAAAAAAAAAAAAAAAAAAAAAAAAAAAAAAAAAAAAAAAAAAAAAAAAAAAAAAAAAAAAAAAAAAAAAAAAAAAAAAAAAAAAAAAAAAAAAAAAAAAAAAAAAAAAAAAAAAAAAAAAAAAAAAAAAAAAAAAAAAAAAAAAAAAAAAAAAAAAAAAAAAAAAAAAAAAAAAAAAAAAAAAAAAAAAAAAAAAAAAAAAAAAAAAAAAAAAAAAAAAAAAAAAAAAAAAAAAAAAAAAAAAAAAAAAAAAAAAAAAAAAAAAAAAAAAAAAAAAAAAAAAAAAAAAAAAAAAAAAAAAAAAAAAAAAAAAAAAAAAAAAAAAAAAAAAAAAAAAAAAAAAAAAAAAAAAAAAAAAAAAAAAAAAAAAAAAAAAAAAAAAAAAAAAAAAAAAAAAAAAAAAAAAAAAAAAAAAAAAAAAAAAAAAAAAAAAAAAAAAAAAAAAAAAAAAAAAAAAAAAAAAAAAAAAAAAAAAAAAAAAAAAAAAAAAAAAAAAAAAAAAAAAAAAAAAAAAAAAAAAAAAAAAAAAAAAAAAAAAAAAAAAAAAAAAAAAAAAAAAAAAAAAAAAAAAAAAAAAAAAAAAAAAAAAAAAAAAAAAAAAAAAAAAAAAAAAAAAAAAAAAAAAAAAAAAAAAAAAAAAAAAAAAAAAAAAAAAAAAAAAAAAAAAAAAAAAAAAAAAAAAAAAAAAAAAAAAAAAAAAAAAAAAAAAAAAAAAAAAAAAAAAAAAAAAAAAAAAAAAAAAAAAAAAAAAAAAAAAAAAAAAAAAAAAAAAAAAAAAAAAAAAAAAAAAAAAAAAAAAAAAAAAAAAAAAAAAAAAAAAAAAAAAAAAAAAAAAAAAAAAAAAAAAAAAAAAAAAAAAAAAAAAAAAAAAAAAAAAAAAAAAAAAAAAAAAAAAAAAAAAAAAAAAAAAAAAAAAAAAAAAAAAAAAAAAAAAAAAAAAAAAAAAAAAAAAAAAAAAAAAAAAAAAAAAAAAAAAAAAAAAAAAAAAAAAAAAAAAAAAAAAAAAAAAAAAAAAAAAAAAAAAAAAAAAAAAAAAAAAAAAAAAAAAAAAAAAAAAAAAAAAAAAAAAAAAAAAAAAAAAAAAAAAAAAAAAAAAAAAAAAAAAAAAAAAAAAAAAAAAAAAAAAAAAAAAAAAAAAAAAAAAAAAAAAAAAAAAAAAAAAAAAAAAAAAAAAAAAAAAAAAAAAAAAAAAAAAAAAAAAAAAAAAAAAAAAAAAAAAAAAAAAAAAAAAAAAAAAAAAAAAAAAAAAAAAAAAAAAAAAAAAAAAAAAAAAAAAAAAAAAAAAAAAAAAAAAAAAAAAAAAAAAAAAAAAAAAAAAAAAAAAAAAAAAAAAAAAAAAAAAAAAAAAAAAAAAAAAAAAAAAAAAAAAAAAAAAAAAAAAAAAAAAAAAAAAAAAAAAAAAAAAAAAAAAAAAAAAAAAAAAAAAAAAAAAAAAAAAAAAAAAAAAAAAAAAAAAAAAAAAAAAAAAAAAAAAAAAAAAAAAAAAAAAAAAAAAAAAAAAAAAAAAAAAAAAAAAAAAAAAAAAAAAAAAAAAAAAAAAAAAAAAAAAAAAAAAAAAAAAAAAAAAAAAAAAAAAAAAAAAAAAAAAAAAAAAAAAAAAAAAAAAAAAAAAAAAAAAAAAAAAAAAAAAAAAAAAAAAAAAAAAAAAAAAAAAAAAAAAAAAAAAAAAAAAAAAAAAAAAAAAAAAAAAAAAAAAAAAAAAAAAAAAAAAAAAAAAAAAAAAAAAAAAAAAAAAAAAAAAAAAAAAAAAAAAAAAAAAAAAAAAAAAAAAAAAAAAAAAAAAAAAAAAAAAAAAAAAAAAAAAAAAAAAAAAAAAAAAAAAAAAAAAAAAAAAAAAAAAAAAAAAAAAAAAAAAAAAAAAAAAAAAAAAAAAAAAAAAAAAAAAAAAAAAAAAAAAAAAAAAAAAAAAAAAAAAAAAAAAAAAAAAAAAAAAAAAAAAAAAAAAAAAAAAAAAAAAAAAAAAAAAAAAAAAAAAAAAAAAAAAAAAAAAAAAAAAAAAAAAAAAAAAAAAAAAAAAAAAAAAAAAAAAAAAAAAAAAAAAAAAAAAAAAAAAAAAAAAAAAAAAAAAAAAAAAAAAAAAAAAAAAAAAAAAAAAAAAAAAAAAAAAAAAAAAAAAAAAAAAAAAAAAAAAAAAAAAAAAAAAAAAAAAAAAAAAAAAAAAAAAAAAAAAAAAAAAAAAAAAAAAAAAAAAAAAAAAAAAAAAAAAAAAAAAAAAAAAAAAAAAAAAAAAAAAAAAAAAAAAAAAAAAAAAAAAAAAAAAAAAAAAAAAAAAAAAAAAAAAAAAAAAAAAAAAAAAAAAAAAAAAAAAAAAAAAAAAAAAAAAAAAAAAAAAAAAAAAAAAAAAAAAAAAAAAAAAAAAAAAAAAAAAAAAAAAAAAAAAAAAAAAAAAAAAAAAAAAAAAAAAAAAAAAAAAAAAAAAAAAAAAAAAAAAAAAAAAAAAAAAAAAAAAAAAAAAAAAAAAAAAAAAAAAAAAAAAAAAAAAAAAAAAAAAAAAAAAAAAAAAAAAAAAAAAAAAAAAAAAAAAAAAAAAAAAAAAAAAAAAAAAAAAAAAAAAAAAAAAAAAAAAAAAAAAAAAAAAAAAAAAAAAAAAAAAAAAAAAAAAAAAAAAAAAAAAAAAAAAAAAAAAAAAAAAAAAAAAAAAAAAAAAAAAAAAAAAAAAAAAAAAAAAAAAAAAAAAAAAAAAAAAAAAAAAAAAAAAAAAAAAAAAAAAAAAAAAAAAAAAAAAAAAAAAAAAAAAAAAAAAAAAAAAAAAAAAAAAAAAAAAAAAAAAAAAAAAAAAAAAAAAAAAAAAAAAAAAAAAAAAAAAAAAAAAAAAAAAAAAAAAAAAAAAAAAAAAAAAAAAAAAAAAAAAAAAAAAAAAAAAAAAAAAAAAAAAAAAAAAAAAAAAAAAAAAAAAAAAAAAAAAAAAAAAAAAAAAAAAAAAAAAAAAAAAAAAAAAAAAAAAAAAAAAAAAAAAAAAAAAAAAAAAAAAAAAAAAAAAAAAAAAAAAAAAAAAAAAAAAAAAAAAAAAAAAAAAAAAAAAAAAAAAAAAAAAAAAAAAAAAAAAAAAAAAAAAAAAAAAAAAAAAAAAAAAAAAAAAAAAAAAAAAAAAAAAAAAAAAAAAAAAAAAAAAAAAAAAAAAAAAAAAAAAAAAAAAAAAAAAAAAAAAAAAAAAAAAAAAAAAAAAAAAAAAAAAAAAAAAAAAAAAAAAAAAAAAAAAAAAAAAAAAAAAAAAAAAAAAAAAAAAAAAAAAAAAAAAAAAAAAAAAAAAPZYQI78MqmdJ2BGkK9bHr0lK+buQpg4Wk8XY3+8DOA9ik1I8gFAKVWG9tdW5DOgPU+zvMgHgahIs62o7bL0JI7JX58=</c2pa:manifest></metadata><g clip-path="url(#a)"><mask id="b" fill="#fff"><path d="M17 115h493v37H17z"/></mask><path fill="#F9FAFB" d="M510 152v-1H17v2h493z" mask="url(#b)"/><g clip-path="url(#c)"><path stroke="#6B7280" stroke-linecap="round" stroke-linejoin="round" stroke-width="1.05" d="M29.25 135.33v-4.66a1.2 1.2 0 0 0-.58-1.01l-4.09-2.34a1.2 1.2 0 0 0-1.16 0l-4.09 2.34a1.2 1.2 0 0 0-.58 1v4.67a1.2 1.2 0 0 0 .58 1.01l4.09 2.34a1.2 1.2 0 0 0 1.16 0l4.09-2.34a1.2 1.2 0 0 0 .58-1"/></g><g clip-path="url(#d)"><path fill="#364153" d="M42.65 137.4a3.4 3.4 0 0 1-1.71-.42q-.75-.43-1.17-1.19a3.6 3.6 0 0 1-.43-1.76q0-1 .43-1.76a3 3 0 0 1 1.17-1.2 3.4 3.4 0 0 1 1.71-.42q1.2 0 2.02.62t1.04 1.7h-1.48a1.3 1.3 0 0 0-.56-.8q-.43-.3-1.03-.3-.48 0-.91.26-.41.24-.68.73-.24.46-.24 1.17 0 .69.24 1.18.26.48.68.73.43.24.91.24.6 0 1.03-.28.42-.3.56-.82h1.48q-.21 1.05-1.04 1.69-.82.63-2.02.64m4.1-.15v-9.36h1.43v3.94q.31-.55.9-.86a2.6 2.6 0 0 1 1.28-.32q1.16 0 1.82.74.68.72.68 2.17v3.69h-1.42v-3.55q0-.9-.36-1.36-.37-.47-1.12-.47-.77 0-1.28.53-.5.54-.5 1.52v3.33zm10.4.16q-.96 0-1.7-.42a3 3 0 0 1-1.16-1.18 3.6 3.6 0 0 1-.42-1.76q0-1 .42-1.77a3 3 0 0 1 1.16-1.2q.74-.44 1.71-.43.96 0 1.65.41.72.42 1.1 1.12.4.71.4 1.57v.29q0 .14-.03.32h-5.35v-.96h3.95q-.04-.72-.53-1.16a1.7 1.7 0 0 0-1.19-.42q-.5 0-.93.23t-.7.66a2 2 0 0 0-.25 1.1v.37q0 .65.26 1.12a1.8 1.8 0 0 0 1.61.92q.57 0 .96-.26.39-.25.57-.7h1.45a2.9 2.9 0 0 1-1.6 1.87q-.6.28-1.38.28m7.26 0a3.4 3.4 0 0 1-1.71-.43q-.75-.43-1.17-1.19a3.6 3.6 0 0 1-.43-1.76q0-1 .43-1.76a3 3 0 0 1 1.17-1.2 3.4 3.4 0 0 1 1.71-.42q1.2 0 2.02.62.81.62 1.04 1.7h-1.48a1.3 1.3 0 0 0-.56-.8q-.43-.3-1.03-.3-.48 0-.91.26-.41.24-.68.73-.24.46-.24 1.17 0 .69.24 1.18.27.48.68.73.43.24.91.24.6 0 1.03-.28.42-.3.56-.82h1.48q-.21 1.05-1.04 1.69-.82.63-2.02.64m5.4-2.16-.55-1 3.29-3.45h1.7zm-1.3 2v-9.36h1.43v9.36zm4.38 0-2.58-3.33.89-.88 3.45 4.21zm5.16.16q-.96 0-1.73-.42a3.2 3.2 0 0 1-1.66-2.96q0-1.02.44-1.77.45-.76 1.22-1.19.78-.42 1.73-.42.98 0 1.73.42.77.42 1.2 1.19.46.75.46 1.77a3.4 3.4 0 0 1-.45 1.76q-.45.77-1.21 1.2-.77.42-1.73.42m-.01-1.24q.53 0 .96-.23.45-.25.7-.72.26-.48.26-1.2 0-.71-.26-1.18a1.8 1.8 0 0 0-1.64-.96q-.51 0-.96.25-.45.24-.7.71-.26.46-.26 1.19 0 .7.26 1.2.26.46.69.7a2 2 0 0 0 .95.24m6.68 1.24a2.2 2.2 0 0 1-1.73-.73q-.65-.74-.65-2.19v-3.69h1.43v3.55q0 .9.35 1.38.37.45 1.02.45.76 0 1.18-.53.43-.53.43-1.52v-3.33h1.43v6.45h-1.43v-1a2.1 2.1 0 0 1-2.03 1.16m7.13-.16q-.6 0-1.02-.14t-.62-.55-.21-1.17v-3.38h-1.1v-1.2H90v-1.66h1.43v1.65h1.73v1.21h-1.73v3.19q0 .37.06.56a.4.4 0 0 0 .27.22q.2.05.55.05h.78v1.22zm1.8-3.95v-1.2h5.9v1.2zm8.92 4.1q-.75 0-1.29-.25a2 2 0 0 1-.8-.72q-.25-.44-.25-.96 0-1.03.74-1.59t1.95-.56q.54 0 .97.1.43.07.7.16v-.3q0-.75-.41-1.11a1.6 1.6 0 0 0-1.08-.37q-.51 0-.9.21t-.5.73h-1.37q.07-.7.47-1.16t1-.7 1.3-.23q1.41 0 2.16.7t.77 1.94v1.69q0 .48.05.71t.2.29q.13.05.37.05h.06v1.22h-.3q-.65 0-1.1-.2-.43-.19-.6-.78-.3.5-.84.81-.55.33-1.3.33m.28-1.11q.5 0 .85-.24t.56-.63.27-.86l-.68-.16a4 4 0 0 0-.79-.08q-.69 0-1.04.3a1 1 0 0 0-.35.75q0 .39.31.66.31.26.87.26m4.78 3.82v-9.3h1.43v.98q.32-.45.86-.8a2.5 2.5 0 0 1 1.38-.34q.93 0 1.65.44.72.45 1.12 1.2.41.78.41 1.75 0 .96-.41 1.73-.4.76-1.12 1.2t-1.65.44q-.75 0-1.33-.3-.57-.3-.9-.82v3.82zm3.4-3.95a1.9 1.9 0 0 0 1.74-1.02q.26-.48.26-1.1 0-.64-.26-1.12-.25-.5-.7-.75-.45-.28-1.03-.28-.6 0-1.04.28-.45.26-.7.74t-.25 1.12.25 1.11.7.75 1.04.27m4.45 1.09v-6.45h1.43v6.45zm-.04-7.6v-1.54h1.52v1.55z"/></g><path fill="#364153" d="M432.34 137v-1.8h-4.66v-1.12l4.46-6.18h1.52v6.06h1.27v1.25h-1.27V137zm.05-2.4v-5.76l.36.1-3.91 5.55-.25-.53h4.38zm3.89 2.4v-1.77h1.85V137zm4.5 0 4.02-7.88h-5.29v-1.22h6.77v1.04l-4.01 8.06zm7.33 0v-.62q0-1.14.32-1.86.33-.74.94-1.2.6-.47 1.47-.84l.52-.24q.84-.38 1.31-.77.48-.38.48-1.03 0-.39-.18-.73t-.55-.55-.97-.2q-.6 0-1.01.24-.4.24-.62.62-.2.39-.2.88h-1.38q0-.97.44-1.62.45-.66 1.17-1 .75-.33 1.65-.34.93 0 1.6.33.7.3 1.07.9.37.58.37 1.39 0 .93-.6 1.65-.58.7-1.77 1.26l-.9.43q-.68.3-1.04.64-.36.33-.5.7t-.14.79h5.08V137zm10.72.16q-1.23 0-2.04-.58a2.2 2.2 0 0 1-.93-1.6h1.47q.1.47.5.76.43.28 1.05.28.6 0 .93-.24.34-.25.34-.61 0-.3-.22-.46a2 2 0 0 0-.78-.25l-.52-.07-.52-.1a4 4 0 0 1-.94-.32 2 2 0 0 1-.7-.6 1.7 1.7 0 0 1-.27-.97q0-.84.64-1.42a2.6 2.6 0 0 1 1.8-.58q1.17 0 1.86.52a2 2 0 0 1 .82 1.52h-1.4a.8.8 0 0 0-.4-.7 2 2 0 0 0-.88-.21q-.53 0-.84.22-.3.23-.31.54 0 .6.95.77l.32.07.4.06a7 7 0 0 1 1.03.2q.35.12.65.3.3.2.48.53t.18.82q0 .62-.32 1.1-.3.47-.91.74-.6.28-1.44.28"/><path fill="#6A7282" d="M485.96 137.16q-.89 0-1.52-.34a3 3 0 0 1-.99-.92q-.36-.57-.44-1.27h1.08q.14.74.64 1.13.49.4 1.23.4 1.2 0 1.9-1.08.72-1.1.66-3.38l.12.35q-.18.45-.57.83a3.2 3.2 0 0 1-2.26.86q-.82 0-1.51-.37a2.8 2.8 0 0 1-1.56-2.57q0-.78.39-1.47a3.1 3.1 0 0 1 2.82-1.59q1.02 0 1.74.38.72.36 1.14.99.44.62.62 1.4.2.78.19 1.59 0 1.5-.43 2.65-.42 1.13-1.25 1.77-.81.63-2 .64m.07-4.44q.67 0 1.17-.27t.78-.71.28-1q0-.58-.28-1.02a2 2 0 0 0-.8-.7 3 3 0 0 0-1.17-.25q-.6 0-1.09.26-.48.25-.75.69a2 2 0 0 0-.26 1.03q0 .6.26 1.05.27.44.75.69.48.23 1.1.23m8.57 4.44q-.96 0-1.73-.33a3 3 0 0 1-1.2-.92q-.44-.6-.44-1.4 0-.54.23-1.02a2.5 2.5 0 0 1 1.63-1.34 2.4 2.4 0 0 1-1.18-.8 2 2 0 0 1-.42-1.19q0-.66.37-1.2.36-.55 1.05-.88a4 4 0 0 1 1.69-.34q1 0 1.67.34.7.32 1.07.87t.37 1.21q0 .64-.42 1.19a2.4 2.4 0 0 1-1.18.8 2.4 2.4 0 0 1 1.62 1.34q.24.48.23 1.03 0 .8-.44 1.39-.45.59-1.2.92a4 4 0 0 1-1.72.33m0-1.02q1.1 0 1.65-.45t.55-1.25q0-.87-.59-1.3t-1.61-.44-1.61.44q-.6.43-.59 1.3 0 .79.55 1.25.54.45 1.65.45m0-4.4q.9 0 1.43-.4t.52-1.09q0-.75-.52-1.13a2.4 2.4 0 0 0-1.43-.37q-.93 0-1.45.37-.5.38-.5 1.13 0 .68.52 1.1.51.4 1.43.4m6.57 5.26 5.28-9.1h1.15l-5.26 9.1zm.48-4.84q-.6 0-1.07-.26a2 2 0 0 1-.75-.76 2.5 2.5 0 0 1-.27-1.19q0-.68.27-1.17.28-.49.77-.75.48-.27 1.06-.27.6 0 1.07.27.47.26.74.75.28.5.28 1.17 0 .69-.28 1.19-.27.5-.76.76-.45.26-1.06.26m0-.88q.45 0 .78-.32.34-.34.34-1 0-.67-.33-1a1.1 1.1 0 0 0-1.57 0q-.34.33-.34 1t.34 1q.33.32.78.32m5.55 5.88q-.59-.01-1.07-.26a2 2 0 0 1-.75-.77 2.4 2.4 0 0 1-.27-1.17q0-.7.27-1.18.3-.5.75-.76.48-.27 1.08-.27a2 2 0 0 1 1.81 1.03q.27.49.27 1.18 0 .66-.27 1.17-.27.49-.75.77-.48.26-1.07.26m0-.89q.45 0 .78-.32.34-.34.34-1t-.33-1a1.1 1.1 0 0 0-1.57 0q-.33.34-.34 1 0 .66.33 1 .34.32.79.32"/></g><defs><clipPath id="a"><path fill="#fff" d="M0 12A12 12 0 0 1 12 0h503a12 12 0 0 1 12 12v241a12 12 0 0 1-12 12H12a12 12 0 0 1-12-12z"/></clipPath><clipPath id="c"><path fill="#fff" d="M17 126h14v14H17z"/></clipPath><clipPath id="d"><path fill="#fff" d="M39 123.25h82.01v19.5H39z"/></clipPath></defs></svg>