<svg xmlns="http://www.w3.org/2000/svg" width="353" height="318" fill="none" xmlns:c2pa="http://c2pa.org/manifest"><metadata><c2pa:manifest>AAAWgmp1bWIAAAAeanVtZGMycGEAEQAQgAAAqgA4m3EDYzJwYQAAABZcanVtYgAAAEdqdW1kYzJtYQARABCAAACqADibcQN1cm46YzJwYTo1ZTQwZmU5OS0yNWMxLTRkNmYtYmRkYi0zM2Y0N2QxYWYzOTgAAAADl2p1bWIAAAApanVtZGMyYXMAEQAQgAAAqgA4m3EDYzJwYS5hc3NlcnRpb25zAAAAALxqdW1iAAAARGp1bWRjYm9yABEAEIAAAKoAOJtxE2MycGEuaW5ncmVkaWVudC52MwAAAAAYYzJzaFtMGRi7rhHZcCtWX/bEZu4AAABwY2JvcqNpZGM6Zm9ybWF0bWltYWdlL3N2Zyt4bWxqaW5zdGFuY2VJRHgseG1wOmlpZDowMjk0YTMwOC0zMzk5LTQ4ODctYjU0Yi1mNmNjODY4MTVlOTNscmVsYXRpb25zaGlwaHBhcmVudE9mAAAB4mp1bWIAAABBanVtZGNib3IAEQAQgAAAqgA4m3ETYzJwYS5hY3Rpb25zLnYyAAAAABhjMnNoAap0bgy+ZxPr9Y4iTQvRDQAAAZljYm9yomdhY3Rpb25zgqJmYWN0aW9ua2MycGEub3BlbmVkanBhcmFtZXRlcnOha2luZ3JlZGllbnRzgaJjdXJseC1zZWxmI2p1bWJmPWMycGEuYXNzZXJ0aW9ucy9jMnBhLmluZ3JlZGllbnQudjNkaGFzaFggii/mpMG0PWkgstS33iEBLqaDz0b+e04UfANdrCteWT+kZmFjdGlvbngdY29tLmFudGhyb3BpYy5jbGF1ZGUucHJvdmlkZWRqcGFyYW1ldGVyc6F4H2NvbS5hbnRocm9waWMub3JpZ2luLWNvbmZpZGVuY2VndW5rbm93bmtkZXNjcmlwdGlvbnhmQ2xhdWRlIHByb3ZpZGVkIHRoaXMgZmlsZSBhdCB0aGUgcmVxdWVzdCBvZiBhIHVzZXIgYW5kIG1heSBoYXZlIGNyZWF0ZWQgb3IgbW9kaWZpZWQgdGhlIGZpbGUgY29udGVudHMubXNvZnR3YXJlQWdlbnShZG5hbWVmQ2xhdWRlcmFsbEFjdGlvbnNJbmNsdWRlZPUAAADIanVtYgAAAEBqdW1kY2JvcgARABCAAACqADibcRNjMnBhLmhhc2guZGF0YQAAAAAYYzJzaIRxZthDE1tmKuEv9ZAJJxEAAACAY2JvcqVjYWxnZnNoYTI1NmNwYWRNAAAAAAAAAAAAAAAAAGRoYXNoWCAdRzRtVRh8F4o/eAIOfKu4Pu3Jw0s/pHYdtcCHC5GQqWRuYW1lbmp1bWJmIG1hbmlmZXN0amV4Y2x1c2lvbnOBomVzdGFydBiMZmxlbmd0aBkeBAAAAj5qdW1iAAAAJ2p1bWRjMmNsABEAEIAAAKoAOJtxA2MycGEuY2xhaW0udjIAAAACD2Nib3KlY2FsZ2ZzaGEyNTZpc2lnbmF0dXJleE1zZWxmI2p1bWJmPS9jMnBhL3VybjpjMnBhOjVlNDBmZTk5LTI1YzEtNGQ2Zi1iZGRiLTMzZjQ3ZDFhZjM5OC9jMnBhLnNpZ25hdHVyZWppbnN0YW5jZUlEeCx4bXA6aWlkOjNhZDc4OGI3LWVhOWUtNDJmZS05ZGNkLWRiODM4YTI1MGFiZnJjcmVhdGVkX2Fzc2VydGlvbnODomN1cmx4LXNlbGYjanVtYmY9YzJwYS5hc3NlcnRpb25zL2MycGEuaW5ncmVkaWVudC52M2RoYXNoWCCKL+akwbQ9aSCy1LfeIQEupoPPRv57ThR8A12sK15ZP6JjdXJseCpzZWxmI2p1bWJmPWMycGEuYXNzZXJ0aW9ucy9jMnBhLmFjdGlvbnMudjJkaGFzaFggHCJxYd8IMv00an/wnRLNCjB/aSVczGkJgruHa9PqiQeiY3VybHgpc2VsZiNqdW1iZj1jMnBhLmFzc2VydGlvbnMvYzJwYS5oYXNoLmRhdGFkaGFzaFggUERhyq5q4mVL5DWroWl0Cnic+z9TMO8dyoLJHwuEkfl0Y2xhaW1fZ2VuZXJhdG9yX2luZm+jZG5hbWVvQW50aHJvcGljIEZpbGVzZ3ZlcnNpb25lMS4wLjBrc3BlY1ZlcnNpb25lMi40LjAAABA4anVtYgAAAChqdW1kYzJjcwARABCAAACqADibcQNjMnBhLnNpZ25hdHVyZQAAABAIY2JvctKEWQISogEmGCFZAgowggIGMIIBjaADAgECAhRA5aAK7sI50L64g/oGQgU9Z1UTADAKBggqhkjOPQQDAzBJMRcwFQYDVQQKEw5BbnRocm9waWMsIFBCQzEuMCwGA1UEAxMlQW50aHJvcGljIENvbnRlbnQgQ3JlZGVudGlhbHMgUm9vdCBDQTAeFw0yNjA4MDcxODQzNTZaFw0yODA4MDYxOTQzNTZaMEQxFzAVBgNVBAoTDkFudGhyb3BpYywgUEJDMSkwJwYDVQQDEyBBbnRocm9waWMgQ2xhdWRlIENvbnRlbnQgU2lnbmluZzBZMBMGByqGSM49AgEGCCqGSM49AwEHA0IABJh6CmvLUBgFFNU0vUKlOVtE6djd17L5SuwX0LemFisBM3dkd/3cyjxFA3Qo5S46fX0/ihY0VZ7mfb9KF703t5OjWDBWMA4GA1UdDwEB/wQEAwIHgDAVBgNVHSUEDjAMBgorBgEEAYPoXgIBMAwGA1UdEwEB/wQCMAAwHwYDVR0jBBgwFoAUzlHiBIFOZFsj+OPEz5o+nMHXXMIwCgYIKoZIzj0EAwMDZwAwZAIwMXMdFJ4BetLLVY7ORuE9noqbbAZOZn/aArXyTwFAZfKrPzxF2vPoJNf1+UCdg1XGAjBwX1zd9WGqYkqmL5SFqw1QySjr1zJfpJM9+1rdDwSPLMOPOjKuiXjoU/pUUeG9RwmhY3BhZFkNngAAAAAAAAAAAAAAAAAAAAAAAAAAAAAAAAAAAAAAAAAAAAAAAAAAAAAAAAAAAAAAAAAAAAAAAAAAAAAAAAAAAAAAAAAAAAAAAAAAAAAAAAAAAAAAAAAAAAAAAAAAAAAAAAAAAAAAAAAAAAAAAAAAAAAAAAAAAAAAAAAAAAAAAAAAAAAAAAAAAAAAAAAAAAAAAAAAAAAAAAAAAAAAAAAAAAAAAAAAAAAAAAAAAAAAAAAAAAAAAAAAAAAAAAAAAAAAAAAAAAAAAAAAAAAAAAAAAAAAAAAAAAAAAAAAAAAAAAAAAAAAAAAAAAAAAAAAAAAAAAAAAAAAAAAAAAAAAAAAAAAAAAAAAAAAAAAAAAAAAAAAAAAAAAAAAAAAAAAAAAAAAAAAAAAAAAAAAAAAAAAAAAAAAAAAAAAAAAAAAAAAAAAAAAAAAAAAAAAAAAAAAAAAAAAAAAAAAAAAAAAAAAAAAAAAAAAAAAAAAAAAAAAAAAAAAAAAAAAAAAAAAAAAAAAAAAAAAAAAAAAAAAAAAAAAAAAAAAAAAAAAAAAAAAAAAAAAAAAAAAAAAAAAAAAAAAAAAAAAAAAAAAAAAAAAAAAAAAAAAAAAAAAAAAAAAAAAAAAAAAAAAAAAAAAAAAAAAAAAAAAAAAAAAAAAAAAAAAAAAAAAAAAAAAAAAAAAAAAAAAAAAAAAAAAAAAAAAAAAAAAAAAAAAAAAAAAAAAAAAAAAAAAAAAAAAAAAAAAAAAAAAAAAAAAAAAAAAAAAAAAAAAAAAAAAAAAAAAAAAAAAAAAAAAAAAAAAAAAAAAAAAAAAAAAAAAAAAAAAAAAAAAAAAAAAAAAAAAAAAAAAAAAAAAAAAAAAAAAAAAAAAAAAAAAAAAAAAAAAAAAAAAAAAAAAAAAAAAAAAAAAAAAAAAAAAAAAAAAAAAAAAAAAAAAAAAAAAAAAAAAAAAAAAAAAAAAAAAAAAAAAAAAAAAAAAAAAAAAAAAAAAAAAAAAAAAAAAAAAAAAAAAAAAAAAAAAAAAAAAAAAAAAAAAAAAAAAAAAAAAAAAAAAAAAAAAAAAAAAAAAAAAAAAAAAAAAAAAAAAAAAAAAAAAAAAAAAAAAAAAAAAAAAAAAAAAAAAAAAAAAAAAAAAAAAAAAAAAAAAAAAAAAAAAAAAAAAAAAAAAAAAAAAAAAAAAAAAAAAAAAAAAAAAAAAAAAAAAAAAAAAAAAAAAAAAAAAAAAAAAAAAAAAAAAAAAAAAAAAAAAAAAAAAAAAAAAAAAAAAAAAAAAAAAAAAAAAAAAAAAAAAAAAAAAAAAAAAAAAAAAAAAAAAAAAAAAAAAAAAAAAAAAAAAAAAAAAAAAAAAAAAAAAAAAAAAAAAAAAAAAAAAAAAAAAAAAAAAAAAAAAAAAAAAAAAAAAAAAAAAAAAAAAAAAAAAAAAAAAAAAAAAAAAAAAAAAAAAAAAAAAAAAAAAAAAAAAAAAAAAAAAAAAAAAAAAAAAAAAAAAAAAAAAAAAAAAAAAAAAAAAAAAAAAAAAAAAAAAAAAAAAAAAAAAAAAAAAAAAAAAAAAAAAAAAAAAAAAAAAAAAAAAAAAAAAAAAAAAAAAAAAAAAAAAAAAAAAAAAAAAAAAAAAAAAAAAAAAAAAAAAAAAAAAAAAAAAAAAAAAAAAAAAAAAAAAAAAAAAAAAAAAAAAAAAAAAAAAAAAAAAAAAAAAAAAAAAAAAAAAAAAAAAAAAAAAAAAAAAAAAAAAAAAAAAAAAAAAAAAAAAAAAAAAAAAAAAAAAAAAAAAAAAAAAAAAAAAAAAAAAAAAAAAAAAAAAAAAAAAAAAAAAAAAAAAAAAAAAAAAAAAAAAAAAAAAAAAAAAAAAAAAAAAAAAAAAAAAAAAAAAAAAAAAAAAAAAAAAAAAAAAAAAAAAAAAAAAAAAAAAAAAAAAAAAAAAAAAAAAAAAAAAAAAAAAAAAAAAAAAAAAAAAAAAAAAAAAAAAAAAAAAAAAAAAAAAAAAAAAAAAAAAAAAAAAAAAAAAAAAAAAAAAAAAAAAAAAAAAAAAAAAAAAAAAAAAAAAAAAAAAAAAAAAAAAAAAAAAAAAAAAAAAAAAAAAAAAAAAAAAAAAAAAAAAAAAAAAAAAAAAAAAAAAAAAAAAAAAAAAAAAAAAAAAAAAAAAAAAAAAAAAAAAAAAAAAAAAAAAAAAAAAAAAAAAAAAAAAAAAAAAAAAAAAAAAAAAAAAAAAAAAAAAAAAAAAAAAAAAAAAAAAAAAAAAAAAAAAAAAAAAAAAAAAAAAAAAAAAAAAAAAAAAAAAAAAAAAAAAAAAAAAAAAAAAAAAAAAAAAAAAAAAAAAAAAAAAAAAAAAAAAAAAAAAAAAAAAAAAAAAAAAAAAAAAAAAAAAAAAAAAAAAAAAAAAAAAAAAAAAAAAAAAAAAAAAAAAAAAAAAAAAAAAAAAAAAAAAAAAAAAAAAAAAAAAAAAAAAAAAAAAAAAAAAAAAAAAAAAAAAAAAAAAAAAAAAAAAAAAAAAAAAAAAAAAAAAAAAAAAAAAAAAAAAAAAAAAAAAAAAAAAAAAAAAAAAAAAAAAAAAAAAAAAAAAAAAAAAAAAAAAAAAAAAAAAAAAAAAAAAAAAAAAAAAAAAAAAAAAAAAAAAAAAAAAAAAAAAAAAAAAAAAAAAAAAAAAAAAAAAAAAAAAAAAAAAAAAAAAAAAAAAAAAAAAAAAAAAAAAAAAAAAAAAAAAAAAAAAAAAAAAAAAAAAAAAAAAAAAAAAAAAAAAAAAAAAAAAAAAAAAAAAAAAAAAAAAAAAAAAAAAAAAAAAAAAAAAAAAAAAAAAAAAAAAAAAAAAAAAAAAAAAAAAAAAAAAAAAAAAAAAAAAAAAAAAAAAAAAAAAAAAAAAAAAAAAAAAAAAAAAAAAAAAAAAAAAAAAAAAAAAAAAAAAAAAAAAAAAAAAAAAAAAAAAAAAAAAAAAAAAAAAAAAAAAAAAAAAAAAAAAAAAAAAAAAAAAAAAAAAAAAAAAAAAAAAAAAAAAAAAAAAAAAAAAAAAAAAAAAAAAAAAAAAAAAAAAAAAAAAAAAAAAAAAAAAAAAAAAAAAAAAAAAAAAAAAAAAAAAAAAAAAAAAAAAAAAAAAAAAAAAAAAAAAAAAAAAAAAAAAAAAAAAAAAAAAAAAAAAAAAAAAAAAAAAAAAAAAAAAAAAAAAAAAAAAAAAAAAAAAAAAAAAAAAAAAAAAAAAAAAAAAAAAAAAAAAAAAAAAAAAAAAAAAAAAAAAAAAAAAAAAAAAAAAAAAAAAAAAAAAAAAAAAAAAAAAAAAAAAAAAAAAAAAAAAAAAAAAAAAAAAAAAAAAAAAAAAAAAAAAAAAAAAAAAAAAAAAAAAAAAAAAAAAAAAAAAAAAAAAAAAAAAAAAAAAAAAAAAAAAAAAAAAAAAAAAAAAAAAAAAAAAAAAAAAAAAAAAAAAAAAAAAAAAAAAAAAAAAAAAAAAAAAAAAAAAAAAAAAAAAAAAAAAAAAAAAAAAAAAAAAAAAAAAAAAAAAAAAAAAAAAAAAAAAAAAAAAAAAAAAAAAAAAAAAAAAAAAAAAAAAAAAAAAAAAAAAAAAAAAAAAAAAAAAAAAAAAAAAAAAAAAAAAAAAAAAAAAAAAAAAAAAAAAAAAAAAAAAAAAAAAAAAAAAAAAAAAAAAAAAAAAAAAAAAAAAAAAAAAAAAAAAAAAAAAAAAAAAAAAAAAAAAAAAAAAAAAAAAAAAAAAAAAAAAAAAAAAAAAAAAAAAAAAAAAAAAAAAAAAAAAAAAAAAAAAAAAAAAAAAAAAAAAAAAAAAAAAAAAAAAAAAAAAAAAAAAAAAAAAAAAAAAAAAAAAAAAAAAAAAAAAAAAAAAAAAAAAAAAAAAAAAAAAAAAAAAAAAAAAAAAAAAAAAAAAAAAAAAAAAAAAAAAAAAAAAAAAAAAAAAAAAAAAAAAAAAAAAAAAAAAAAAAAAAAAAAAAAAAAAAAAAAAAAAAAAAAAAAAAAAAAAAAAAAAAAAAAAAAAAAAAAAAAAAAAAAAAAAAAAAAAAAAAAAAAAAAAAAAAAAAAAAAAAAAAAAAAAAAAAAAAAAAAAAAAAAAAAAAAAAAAAAAAAAAAAAAAAAAAAAAAAAAAAAAAAAAAAAAAAAAAAAAAAAAAAAAAAAAAAAAAAAAAAAAAAAAAAAAAAAAAAAAAAAAAAAAAAAAAAAAAAAAAAAAAAAAAAAAAAAAAAAAAAAAAAAAAAAAAAAAAAAAAAAAAAAAAAAAAAAAAAAAAAAAAAAAAAAAAAAAAAAAAAAAAAAAAAAAAAAAAAAAAAAAAAAAAAAAAAAAAAAAAAAAAAAAAAAAAAAAAAAAAAAAAAAAAAAAAAAAAAAAAAAAAAAAAAAAAAAAAAAAAAAAAAAAAAAAAAAAAAAAAAAAAAAAAAAAAAAAAAAAAAAAAAAAAAAAAAAAAAAAAAAAAAAAAAAAAAAAAAAAAAAAAAAAAAAAAAAAAAAAAAAAAAAAAAAAAAAAAAAAAAAAAAAAAAAAAAAAAAAAAAAAAAAAAAAAAAAAAAAAAAAAAAAAAAAAAAAAAAAAAAAAAAAAAAAAAAAAAAAAAAAAAAAAAAAAAAAAAAAAAAAAAAAAAAAAAAAAAAAAAAAAAAAAAAAAAAAAAAAAAAAAAAAAAAAAAAAAAAAAAAAAAAAAAAAAAAAAAAAAAAAAAAAAAAAAAAAPZYQNkHZwQ3PRvtzYj3BMzrYj3e1zmOubYWtzGqjhttnnfolVFhnsM9xvub4Px6No7SP62pGjZj7RZf/QmVCDzeqGM=</c2pa:manifest></metadata><path fill="#6D6D6D" d="M137.46 300v-7.7h2.57q.87 0 1.44.32a2 2 0 0 1 .82.85q.27.53.27 1.16 0 .65-.27 1.17a2 2 0 0 1-.82.84q-.57.33-1.44.32h-1.64V300zm.93-3.88H140q.81 0 1.2-.41.4-.42.4-1.08t-.4-1.08-1.2-.41h-1.62zm5.76 3.88v-7.7h2.36q.9 0 1.47.3a2 2 0 0 1 .87.81q.28.5.28 1.16 0 .75-.4 1.34-.38.57-1.18.8l1.67 3.29h-1.1l-1.55-3.16h-1.5V300zm.92-4h1.41q.89 0 1.29-.4t.41-1.03q0-.67-.4-1.05t-1.31-.38h-1.4zm5.72 4v-7.7h4.8v.84h-3.88v2.56h3.55v.84h-3.55v2.62h3.88v.84zm6.46 0v-7.7h2.56q.89 0 1.45.32a2 2 0 0 1 .82.85q.26.53.26 1.16 0 .65-.26 1.17a2 2 0 0 1-.82.84q-.57.33-1.44.32h-1.64V300zm.93-3.88h1.61q.82 0 1.21-.41.4-.42.4-1.08t-.4-1.08-1.2-.41h-1.62zm5.22 3.88 2.4-7.7h1.07l2.4 7.7h-1.01l-.56-1.91h-2.73l-.56 1.91zm2.91-6.4-1.11 3.72h2.27l-1.12-3.72zm4.22 6.4v-7.7h2.37q.89 0 1.46.3a2 2 0 0 1 .87.81q.28.5.28 1.16 0 .75-.4 1.34-.38.57-1.18.8l1.67 3.29h-1.1l-1.55-3.16h-1.49V300zm.93-4h1.4q.88 0 1.29-.4t.42-1.03q0-.67-.4-1.05t-1.32-.38h-1.4zm5.71 4v-7.7h4.8v.84h-3.87v2.56h3.55v.84h-3.56v2.62h3.89v.84zm6.38 0v-7.7h1.61q1.9 0 2.8 1.03.9 1.04.91 2.82a4 4 0 0 1-.91 2.82q-.9 1.02-2.8 1.03zm.92-.85h.67q1.02 0 1.62-.37t.89-1.05q.27-.66.27-1.58 0-.91-.27-1.58-.27-.68-.9-1.05-.6-.37-1.6-.37h-.68zm14.84.98q-.87 0-1.54-.48a3 3 0 0 1-1.03-1.38q-.37-.9-.37-2.12t.37-2.12 1.03-1.38 1.54-.48 1.54.48 1.03 1.38.37 2.12-.37 2.12a3 3 0 0 1-1.03 1.38q-.66.48-1.54.48m-1.99-3.98q0 .75.16 1.35t.45 1l2.13-5.29a1.5 1.5 0 0 0-.75-.18q-.58 0-1.03.38t-.7 1.08a5 5 0 0 0-.26 1.66m2 3.14q.57 0 1.03-.38.45-.39.7-1.09t.25-1.67q0-.75-.16-1.34-.15-.6-.44-1.01l-2.15 5.3q.36.19.76.19m6.59.84q-.78 0-1.36-.28-.57-.3-.9-.8a2 2 0 0 1-.33-1.16q0-.73.39-1.23.38-.51.89-.7v-.06a2 2 0 0 1-.78-.66q-.3-.45-.29-1.03 0-.56.29-1.02.3-.46.83-.75.54-.27 1.26-.27.7 0 1.23.27.54.28.84.75t.3 1.02q0 .59-.3 1.03-.28.42-.76.66v.05a2.1 2.1 0 0 1 1.27 1.94q0 .65-.33 1.15t-.91.8-1.34.3m0-4.57q.67 0 1.06-.36.4-.36.4-.93 0-.56-.4-.91a1.5 1.5 0 0 0-1.06-.37q-.69 0-1.08.37-.39.35-.39.9 0 .58.39.94t1.08.36m0 3.74q.73 0 1.19-.38t.46-1.1-.47-1.1q-.45-.38-1.18-.38-.75 0-1.2.38-.45.37-.45 1.1 0 .72.45 1.1t1.2.38m6.6.72a.8.8 0 0 1-.83-.8q0-.32.24-.56a.8.8 0 0 1 .58-.23.8.8 0 0 1 .83.79q0 .34-.24.57a.8.8 0 0 1-.59.23m0-4.34a.8.8 0 0 1-.83-.8q0-.34.24-.57a.8.8 0 0 1 .58-.23.8.8 0 0 1 .83.8q0 .33-.24.57a.8.8 0 0 1-.59.23m6.59 4.45q-.8 0-1.36-.3-.59-.3-.9-.8a3 3 0 0 1-.4-1.15h.94q.1.63.56 1.02t1.17.39q.82 0 1.3-.53.47-.54.47-1.36 0-.85-.48-1.34-.49-.5-1.26-.5-.6 0-1.05.3-.43.27-.7.7h-.88l.66-4.26h4.12v.85h-3.39l-.4 2.29h.05a2.3 2.3 0 0 1 1.7-.7q.75 0 1.31.33.57.32.9.93.3.6.31 1.4a3 3 0 0 1-.32 1.37q-.3.6-.91.99-.6.37-1.44.37m6.75 0q-1.02 0-1.65-.48a3 3 0 0 1-.94-1.32 6 6 0 0 1-.3-1.88q0-1.27.36-2.22.35-.97 1.01-1.51.67-.55 1.6-.55.75 0 1.26.28.53.28.83.76.3.47.36 1.07h-.87a1.5 1.5 0 0 0-1.57-1.28q-.55 0-1.01.36-.46.34-.75 1.06-.3.72-.33 1.83h.05a2.3 2.3 0 0 1 2.06-1.18q.7 0 1.24.32.56.31.87.88.33.56.33 1.28 0 .7-.32 1.3-.3.58-.89.93a2.5 2.5 0 0 1-1.34.35m-.07-.83a1.6 1.6 0 0 0 1.69-1.7q0-.74-.47-1.2a1.6 1.6 0 0 0-1.22-.5q-.5 0-.89.23a1.6 1.6 0 0 0-.8 1.47q0 .48.2.87a1.6 1.6 0 0 0 1.5.83m10.9.7v-.8h1.74v-6.1h-1.74v-.8h4.42v.8h-1.75v6.1h1.75v.8zm8.86.13q-.94 0-1.62-.5-.68-.48-1.03-1.38a6 6 0 0 1-.36-2.1q0-1.2.36-2.09.36-.9 1.03-1.4.68-.5 1.62-.5 1.19 0 1.91.67.73.64.85 1.74h-1.03q-.1-.66-.55-1.1a1.6 1.6 0 0 0-1.18-.43q-.96 0-1.51.83-.55.82-.55 2.28 0 1.47.55 2.29.56.82 1.5.82.8 0 1.2-.41.44-.42.55-1.08h1.02a3 3 0 0 1-.88 1.74 2.7 2.7 0 0 1-1.88.62m6.08-.13v-6.86h-2.07v-.84h5.06v.84h-2.07V300zm13.65-3.06a.8.8 0 0 1-.83-.8q0-.32.25-.56a.8.8 0 0 1 .58-.23q.34 0 .58.23t.24.56q0 .35-.24.57a.8.8 0 0 1-.58.23m10.85 3.06v-7.7h.92v6.86h3.9v.84zm6.73 0v-.8h1.74v-6.1h-1.74v-.8h4.42v.8h-1.75v6.1h1.75v.8zm6.13 0v-7.7h.94l3.5 6.08v-6.08h.92v7.7h-.96l-3.5-6.08V300zm6.48 0v-7.7h.93v3.32h3.73v-3.32h.92v7.7h-.92v-3.54h-3.73V300zm13.5 0v-7.7h2.56q.87 0 1.44.32a2 2 0 0 1 .82.85q.27.53.27 1.16 0 .65-.27 1.17a2 2 0 0 1-.82.84q-.57.33-1.44.32h-1.64V300zm.92-3.88h1.61q.82 0 1.21-.41.4-.42.4-1.08t-.4-1.08-1.2-.41h-1.62zm5.37 3.88v-7.7h.93v3.32h3.72v-3.32h.93v7.7h-.93v-3.54h-3.72V300zm6.44 0 2.41-7.7h1.07l2.4 7.7h-1.01l-.57-1.91h-2.72l-.56 1.91zm2.92-6.4-1.11 3.72h2.26l-1.1-3.72zm3.87 6.4v-7.7h.99l1.76 3.66 1.76-3.66h.99v7.7h-.9v-5.92l-1.5 3.12h-.7l-1.5-3.1v5.9z"/></svg>